<svg version="1.1" xmlns="http://www.w3.org/2000/svg" viewBox="0 0 819.5731738415535 730.6936664634123" width="819.5731738415535" height="730.6936664634123">
  <!-- svg-source:excalidraw -->
  
  <defs>
    <style class="style-fonts">
      @font-face {
        font-family: "Virgil";
        src: url("https://excalidraw.com/Virgil.woff2");
      }
      @font-face {
        font-family: "Cascadia";
        src: url("https://excalidraw.com/Cascadia.woff2");
      }
    </style>
    
  </defs>
  <rect x="0" y="0" width="819.5731738415535" height="730.6936664634123" fill="#ffffff"></rect><g stroke-linecap="round"><g transform="translate(56.80625718091085 461.6950195935141) rotate(0 376.38345833032133 -3.0851103141829412)"><path d="M0 0 C125.46 -1.03, 627.31 -5.14, 752.77 -6.17" stroke="#1e1e1e" stroke-width="2.5" fill="none" stroke-dasharray="8 10"></path></g></g><mask></mask><g stroke-linecap="round" transform="translate(62.94082217864411 481.56640188829147) rotate(359.0636830997911 52.44687534111034 66.42428495112091)"><path d="M66.25 16.75 M66.25 16.75 C71.17 24.71, 76.33 30.58, 91.64 50.25 M66.25 16.75 C71.45 25.22, 77.13 31.78, 91.64 50.25 M91.64 50.25 C105.77 67.83, 103.42 67.45, 91.64 83.75 M91.64 50.25 C103.26 67.04, 104.07 68.76, 91.64 83.75 M91.64 83.75 C81.32 95.75, 70.78 110.61, 66.25 116.1 M91.64 83.75 C85.63 91.8, 80.81 99.49, 66.25 116.1 M66.25 116.1 C53.32 134.13, 52.75 134.37, 39.75 116.1 M66.25 116.1 C51.28 132.98, 53.01 132.44, 39.75 116.1 M39.75 116.1 C31.64 105.72, 23.96 94.45, 13.25 83.75 M39.75 116.1 C29.81 104.68, 22.02 94.23, 13.25 83.75 M13.25 83.75 C-1.77 66.16, -1.3 65.94, 13.25 50.25 M13.25 83.75 C0.34 67.62, -1.4 69.29, 13.25 50.25 M13.25 50.25 C21.21 38.87, 27.32 32.28, 39.75 16.75 M13.25 50.25 C20.79 40.7, 28.05 30.08, 39.75 16.75 M39.75 16.75 C52.57 -1.85, 51.12 1.94, 66.25 16.75 M39.75 16.75 C51.7 -0.41, 54.23 -0.38, 66.25 16.75" stroke="#1e1e1e" stroke-width="4" fill="none"></path></g><g stroke-linecap="round" transform="translate(700.0517576880583 481.7482366357033) rotate(0 52.4468753411104 66.32987175493366)"><path d="M66.25 16.75 M66.25 16.75 C72.88 27.75, 83.15 39.8, 91.64 50.25 M66.25 16.75 C74.45 26.43, 81.93 36.89, 91.64 50.25 M91.64 50.25 C103.38 68.54, 103.36 67.41, 91.64 83.75 M91.64 50.25 C105.9 65.02, 102.99 65.48, 91.64 83.75 M91.64 83.75 C81.04 94.97, 72.44 108.24, 66.25 115.91 M91.64 83.75 C83.16 93.47, 76.35 104.43, 66.25 115.91 M66.25 115.91 C54.71 132.19, 52.98 132.09, 39.75 115.91 M66.25 115.91 C55.09 133.43, 54.8 130.64, 39.75 115.91 M39.75 115.91 C30.88 108.33, 24.64 96.13, 13.25 83.75 M39.75 115.91 C32.18 106.15, 25.37 96.89, 13.25 83.75 M13.25 83.75 C-0.13 68.64, -0.88 68.3, 13.25 50.25 M13.25 83.75 C0.54 65.03, -1.3 64.91, 13.25 50.25 M13.25 50.25 C21.77 41.17, 30.81 29.79, 39.75 16.75 M13.25 50.25 C18.59 43.12, 24.24 35.71, 39.75 16.75 M39.75 16.75 C51.4 0.32, 51.95 0.51, 66.25 16.75 M39.75 16.75 C54.34 -2.24, 52.41 0.25, 66.25 16.75" stroke="#1e1e1e" stroke-width="4" fill="none"></path></g><g transform="translate(738.6156366153454 518.7695604058989) rotate(0 18.825343866807657 34.7074910345583)"><text x="0" y="0" font-family="Virgil, Segoe UI Emoji" font-size="55.531985655293305px" fill="#1e1e1e" text-anchor="start" style="white-space: pre;" direction="ltr" dominant-baseline="text-before-edge">R</text></g><g transform="translate(27.931830111741192 596.7360525038325) rotate(0 31.6319311444463 32.43209929541325)"><text x="0" y="0" font-family="Virgil, Segoe UI Emoji" font-size="25.9456794363306px" fill="#1e1e1e" text-anchor="start" style="white-space: pre;" direction="ltr" dominant-baseline="text-before-edge">Foot</text><text x="0" y="32.43209929541325" font-family="Virgil, Segoe UI Emoji" font-size="25.9456794363306px" fill="#1e1e1e" text-anchor="start" style="white-space: pre;" direction="ltr" dominant-baseline="text-before-edge">Angle</text></g><g stroke-linecap="round" transform="translate(318.8614197588312 130.02791611942519) rotate(0 30.584173354581594 28.930974794874516)"><path d="M29.44 -0.17 C35.79 -0.66, 45.07 1.8, 50.19 5.82 C55.31 9.84, 58.98 17.8, 60.15 23.94 C61.33 30.09, 60.48 37.44, 57.26 42.69 C54.03 47.93, 47.07 53.08, 40.8 55.4 C34.52 57.72, 25.82 58.7, 19.61 56.63 C13.39 54.56, 6.83 48.55, 3.51 42.98 C0.19 37.41, -1.41 29.12, -0.33 23.21 C0.75 17.3, 3.63 11.39, 10 7.53 C16.37 3.66, 32.31 0.9, 37.86 0.02 C43.41 -0.86, 43.41 1.65, 43.3 2.24 M31.58 1.46 C37.63 1.65, 47.69 3.7, 52.36 7.62 C57.03 11.55, 58.81 18.95, 59.61 25 C60.4 31.05, 60.62 38.59, 57.12 43.93 C53.61 49.27, 45.35 55.06, 38.58 57.05 C31.81 59.03, 22.33 58.59, 16.5 55.84 C10.66 53.1, 5.94 46.33, 3.55 40.59 C1.15 34.85, 0.53 27.4, 2.13 21.4 C3.73 15.41, 8.05 8.37, 13.15 4.6 C18.26 0.83, 29.46 -0.79, 32.76 -1.22 C36.05 -1.64, 32.87 1.45, 32.92 2.03" stroke="#4dabf7" stroke-width="4" fill="none"></path></g><g stroke-linecap="round" transform="translate(402.7469949522455 198.3506221128382) rotate(0 30.584173354581594 28.930974794874516)"><path d="M43.22 3.38 C48.98 5.57, 55.64 12.3, 58.5 17.82 C61.35 23.35, 62.06 30.85, 60.34 36.52 C58.62 42.19, 53.57 48.19, 48.18 51.87 C42.79 55.54, 34.41 58.86, 27.98 58.59 C21.56 58.32, 14.2 54.81, 9.63 50.24 C5.06 45.67, 1.21 37.6, 0.56 31.18 C-0.1 24.76, 1.85 16.74, 5.69 11.72 C9.54 6.7, 16.81 2.44, 23.61 1.07 C30.41 -0.29, 42.33 2.81, 46.5 3.52 C50.67 4.24, 49.07 4.77, 48.62 5.38 M32.73 -0.36 C38.79 -0.8, 46.5 2.68, 51.43 7.1 C56.37 11.52, 61.43 20.05, 62.33 26.16 C63.22 32.27, 60.49 38.72, 56.79 43.77 C53.08 48.81, 46.25 54.3, 40.09 56.42 C33.94 58.54, 25.91 58.57, 19.88 56.48 C13.85 54.4, 7.24 49.46, 3.91 43.93 C0.58 38.4, -1.2 29.48, -0.09 23.3 C1.02 17.12, 5.34 10.51, 10.59 6.86 C15.84 3.21, 27.84 2.42, 31.41 1.42 C34.98 0.43, 31.79 0.58, 32.01 0.9" stroke="#2f9e44" stroke-width="4" fill="none"></path></g><g stroke-linecap="round" transform="translate(235.77394042182698 67.5769153553168) rotate(0 30.584173354581594 28.9309747948745)"><path d="M32.2 0.26 C38.13 0.21, 45.7 3.75, 50.64 8.09 C55.57 12.43, 60.72 20.11, 61.81 26.29 C62.9 32.48, 60.91 40.15, 57.17 45.21 C53.42 50.28, 45.87 54.83, 39.35 56.67 C32.84 58.52, 24.07 58.71, 18.09 56.28 C12.1 53.85, 6.42 47.73, 3.43 42.07 C0.44 36.42, -1.17 28.57, 0.15 22.35 C1.47 16.14, 5.08 8.38, 11.34 4.78 C17.61 1.18, 32.5 0.97, 37.72 0.76 C42.94 0.54, 42.73 3.07, 42.64 3.49 M35.21 0.48 C41.41 0.55, 47.89 4.54, 52.2 9.12 C56.51 13.69, 60.44 21.72, 61.07 27.95 C61.69 34.17, 59.58 41.75, 55.94 46.47 C52.3 51.2, 45.65 55.09, 39.23 56.28 C32.81 57.47, 23.4 56.3, 17.41 53.62 C11.43 50.94, 5.77 45.61, 3.31 40.19 C0.85 34.76, 0.88 26.76, 2.65 21.06 C4.43 15.36, 8.68 9.42, 13.98 5.97 C19.28 2.52, 30.97 1.18, 34.47 0.36 C37.96 -0.45, 35.03 0.84, 34.96 1.1" stroke="#f08c00" stroke-width="4" fill="none"></path></g><g stroke-linecap="round" transform="translate(159.6127929815267 10) rotate(0 30.584173354581594 28.930974794874516)"><path d="M34.72 0.97 C41.26 1.27, 49.24 5, 53.62 9.34 C58 13.69, 60.81 20.8, 61.01 27.04 C61.21 33.27, 58.64 41.74, 54.81 46.75 C50.98 51.76, 44.43 55.74, 38.04 57.1 C31.65 58.46, 22.51 57.82, 16.45 54.91 C10.4 52, 4.16 45.29, 1.71 39.63 C-0.75 33.97, -0.4 26.6, 1.73 20.96 C3.85 15.32, 8.27 9.17, 14.46 5.78 C20.65 2.4, 34.22 1.2, 38.87 0.65 C43.52 0.11, 42.44 1.88, 42.36 2.52 M33.59 0.96 C40.04 1.22, 48.41 4.92, 53.23 9.09 C58.06 13.27, 62.12 20.08, 62.56 26 C62.99 31.92, 59.8 39.5, 55.86 44.61 C51.91 49.72, 45.08 54.88, 38.89 56.66 C32.7 58.44, 24.69 57.76, 18.71 55.31 C12.73 52.87, 5.86 47.65, 3.01 41.97 C0.15 36.3, -0.3 27.37, 1.6 21.27 C3.49 15.17, 8.97 9.07, 14.37 5.37 C19.77 1.66, 30.93 -0.33, 34.01 -0.97 C37.09 -1.61, 32.81 0.99, 32.85 1.53" stroke="#e03131" stroke-width="4" fill="none"></path></g><g stroke-linecap="round"><g transform="translate(190.65302111120002 81.68610995971372) rotate(0 3.76245189450583 266.1934715362887)"><path d="M0 0 C1.25 88.73, 6.27 443.66, 7.52 532.39 M0 0 C1.25 88.73, 6.27 443.66, 7.52 532.39" stroke="#e03131" stroke-width="4" fill="none"></path></g></g><mask></mask><g stroke-linecap="round"><g transform="translate(264.0208330540639 143.76656621906022) rotate(0 1.881225947252915 238.91569530112133)"><path d="M0 0 C0.63 79.64, 3.14 398.19, 3.76 477.83 M0 0 C0.63 79.64, 3.14 398.19, 3.76 477.83" stroke="#f08c00" stroke-width="4" fill="none"></path></g></g><mask></mask><g stroke-linecap="round"><g transform="translate(346.79477473319264 209.60947437291253) rotate(0 1.881225947252915 205.05362825056866)"><path d="M0 0 C0.63 68.35, 3.14 341.76, 3.76 410.11 M0 0 C0.63 68.35, 3.14 341.76, 3.76 410.11" stroke="#4dabf7" stroke-width="4" fill="none"></path></g></g><mask></mask><g stroke-linecap="round"><g transform="translate(433.3311683068272 621.5979568213029) rotate(0 -0.9406129736264575 -173.072787147269)"><path d="M0 0 C-0.31 -57.69, -1.57 -288.45, -1.88 -346.15 M0 0 C-0.31 -57.69, -1.57 -288.45, -1.88 -346.15" stroke="#2f9e44" stroke-width="4" fill="none"></path></g></g><mask></mask><g transform="translate(233.9212178980173 15.843201805861383) rotate(0 44.08088849151227 18.812259472529234)"><text x="0" y="0" font-family="Virgil, Segoe UI Emoji" font-size="30.099615156046784px" fill="#e03131" text-anchor="start" style="white-space: pre;" direction="ltr" dominant-baseline="text-before-edge">Driver</text></g><g transform="translate(312.93270768263994 74.16120617070203) rotate(0 189.28142485667968 18.812259472529234)"><text x="0" y="0" font-family="Virgil, Segoe UI Emoji" font-size="30.099615156046777px" fill="#f08c00" text-anchor="start" style="white-space: pre;" direction="ltr" dominant-baseline="text-before-edge">3i, 4i, and Fairway Woods</text></g><g transform="translate(393.82542341451574 140.0041143245544) rotate(0 59.7025903649934 18.812259472529234)"><text x="0" y="0" font-family="Virgil, Segoe UI Emoji" font-size="30.09961515604678px" fill="#4dabf7" text-anchor="start" style="white-space: pre;" direction="ltr" dominant-baseline="text-before-edge">5i, 6i, 7i</text></g><g transform="translate(484.1242688826561 215.25315221467133) rotate(0 135.1773769475684 18.812259472529234)"><text x="0" y="0" font-family="Virgil, Segoe UI Emoji" font-size="30.099615156046784px" fill="#2f9e44" text-anchor="start" style="white-space: pre;" direction="ltr" dominant-baseline="text-before-edge">8i, 9i, and Wedges</text></g><g stroke-linecap="round"><g transform="translate(112.9141253497188 397.953389797882) rotate(0 2.1280272647733227 161.69996589064186)"><path d="M0.82 0.66 C1.24 54.58, 2.71 269.1, 3.44 322.74" stroke="#2f9e44" stroke-width="2.5" fill="none" stroke-dasharray="8 10"></path></g></g><mask></mask><g stroke-linecap="round"><g transform="translate(181.52354224953103 716.6551973324947) rotate(0 -63.99258052164885 -156.67673142790494)"><path d="M0.91 0.22 C-20.63 -52.19, -107.34 -261.43, -128.89 -313.57" stroke="#4dabf7" stroke-width="2.5" fill="none" stroke-dasharray="8 10"></path></g></g><mask></mask><g stroke-linecap="round"><g transform="translate(237.9603206671187 715.5485938341108) rotate(0 -113.98016033355935 -154.3711880245781)"><path d="M0 0 C-37.99 -51.46, -189.97 -257.29, -227.96 -308.74" stroke="#e03131" stroke-width="2.5" fill="none" stroke-dasharray="8 10"></path></g></g><mask></mask></svg>